<svg width="29" height="29" viewBox="0 0 29 29" fill="none" xmlns="http://www.w3.org/2000/svg">
<path d="M3.625 8.45833V6.04167C3.625 5.40073 3.87961 4.78604 4.33283 4.33283C4.78604 3.87961 5.40073 3.625 6.04167 3.625H8.45833M20.5417 3.625H22.9583C23.5993 3.625 24.214 3.87961 24.6672 4.33283C25.1204 4.78604 25.375 5.40073 25.375 6.04167V8.45833M25.375 20.5417V22.9583C25.375 23.5993 25.1204 24.214 24.6672 24.6672C24.214 25.1204 23.5993 25.375 22.9583 25.375H20.5417M8.45833 25.375H6.04167C5.40073 25.375 4.78604 25.1204 4.33283 24.6672C3.87961 24.214 3.625 23.5993 3.625 22.9583V20.5417M9.66667 8.45833V20.5417M14.5 8.45833V20.5417M20.5417 8.45833V20.5417" stroke="#F47E8A" stroke-width="2" stroke-linecap="round" stroke-linejoin="round"/>
</svg>
