<svg width="30" height="30" viewBox="0 0 30 30" fill="none" xmlns="http://www.w3.org/2000/svg">
<path d="M9.75 2.75V5.25H20.25V2.75H22.25V5.25H23.75C24.3467 5.25 24.9189 5.48722 25.3408 5.90918C25.7628 6.33114 26 6.90326 26 7.5V25C26 25.5967 25.7628 26.1689 25.3408 26.5908C24.9189 27.0128 24.3467 27.25 23.75 27.25H6.25C5.65326 27.25 5.08114 27.0128 4.65918 26.5908C4.23722 26.1689 4 25.5967 4 25V7.5C4 6.90326 4.23722 6.33114 4.65918 5.90918C5.08114 5.48722 5.65326 5.25 6.25 5.25H7.75V2.75H9.75ZM6 25.25H24V9.75H6V25.25ZM21 19V21H19V19H21ZM16 19V21H14V19H16ZM11 19V21H9V19H11ZM21 14V16H19V14H21ZM16 14V16H14V14H16ZM11 14V16H9V14H11Z" fill="#F47E8A" stroke="#FFF5F3" stroke-width="0.5"/>
</svg>
