<svg width="29" height="29" viewBox="0 0 29 29" fill="none" xmlns="http://www.w3.org/2000/svg">
<path d="M25.375 11.7812H24.4268C24.1991 9.30591 23.0548 7.00495 21.2184 5.32967C19.3819 3.65439 16.9858 2.72568 14.5 2.72568C12.0142 2.72568 9.6181 3.65439 7.78164 5.32967C5.94518 7.00495 4.80087 9.30591 4.57316 11.7812H3.625C3.38465 11.7812 3.15414 11.8767 2.98418 12.0467C2.81423 12.2166 2.71875 12.4471 2.71875 12.6875C2.72273 14.8427 3.31585 16.9558 4.43395 18.7983C5.55206 20.6408 7.15261 22.1425 9.0625 23.1411V23.5625C9.0625 24.0432 9.25346 24.5042 9.59337 24.8441C9.93328 25.184 10.3943 25.375 10.875 25.375H18.125C18.6057 25.375 19.0667 25.184 19.4066 24.8441C19.7465 24.5042 19.9375 24.0432 19.9375 23.5625V23.1411C21.8474 22.1425 23.4479 20.6408 24.566 18.7983C25.6842 16.9558 26.2773 14.8427 26.2812 12.6875C26.2812 12.4471 26.1858 12.2166 26.0158 12.0467C25.8459 11.8767 25.6154 11.7812 25.375 11.7812ZM19.652 6.3698C19.8597 6.53972 20.0587 6.71908 20.249 6.90788C17.8365 7.75653 15.843 9.50067 14.6813 11.779H11.3395C11.9059 10.1913 12.9487 8.81713 14.3254 7.84432C15.7021 6.8715 17.3455 6.34745 19.0312 6.34374C19.2386 6.34374 19.4459 6.35394 19.652 6.3698ZM16.7792 11.7812C17.878 10.1329 19.5402 8.94186 21.4543 8.43152C22.0802 9.44952 22.4728 10.5935 22.6041 11.7812H16.7792ZM14.5 4.53124C15.2272 4.5319 15.9511 4.62981 16.6523 4.82238C14.9446 5.24602 13.3786 6.11235 12.1123 7.33407C10.8461 8.55579 9.92424 10.0897 9.43973 11.7812H6.39586C6.62066 9.78847 7.57095 7.94811 9.06557 6.61102C10.5602 5.27393 12.4946 4.53363 14.5 4.53124Z" fill="#F47E8A"/>
</svg>
