<svg width="73" height="70" viewBox="0 0 73 70" fill="none" xmlns="http://www.w3.org/2000/svg">
<path d="M38.944 21.7678C44.6941 23.0577 47.4069 19.9675 54.1594 21.4162C57.4563 22.1419 59.3024 23.4618 59.1461 24.6229C59.005 25.7361 57.1991 25.9551 55.1917 25.4789C52.4212 24.9196 51.5902 23.5519 51.686 22.5822C49.6635 22.1539 49.0564 22.9095 48.9556 23.5618C48.7843 24.7707 50.8772 26.6423 55.1135 27.5594C59.9241 28.6578 62.0298 27.3231 62.2365 25.3359C62.5137 22.792 59.5595 19.6485 52.9179 18.1822C44.3974 16.3329 43.2511 20.1284 37.5011 18.8384C35.1436 18.3043 34.0178 17.3698 34.0658 16.385C34.2094 15.4304 35.4461 15.3474 36.8162 15.6749C38.0906 15.9722 39.5136 16.6322 40.1105 17.2418C40.7276 17.1209 40.9946 16.9421 41.0047 16.5769C41.0854 15.6551 39.4835 14.7281 37.2697 14.2393C32.9855 13.3071 32.396 15.1734 32.2826 16.0323C32.0985 18.4477 34.8513 20.896 38.944 21.7678ZM63.9935 40.1005C58.4474 39.6643 51.6017 38.3441 43.658 35.8349C35.5707 33.2804 29.239 30.3331 24.4184 27.6C20.2024 24.9526 18.1221 22.8745 17.684 21.2625C17.1624 24.4133 17.006 27.5743 17.1342 30.6672C15.759 31.0222 14.356 31.6317 13.0211 32.5257C10.4771 34.2483 8.81712 36.6711 8.12934 39.3484C7.44155 42.0257 8.0534 44.5873 9.58207 46.9121C11.2064 49.2672 13.3523 50.4713 16.1354 50.8241C17.1857 50.9979 18.5155 50.7865 19.6112 50.8168C17.4577 50.1366 15.866 48.8444 14.501 46.8344C12.9925 44.779 12.2547 42.283 12.7385 39.7517C12.9855 37.3036 14.1442 35.3013 16.0258 33.8432C16.4338 33.551 16.8116 33.3546 17.2373 33.1733C17.3807 35.2185 17.6979 37.2133 18.0781 39.1753C19.0878 42.8099 20.2663 46.0767 21.3365 49.5198C21.6689 51.4667 21.7141 53.323 21.583 55.071C22.3006 57.2975 23.7588 59.1791 25.8442 60.5746C28.3501 62.4713 31.1961 63.7913 34.2109 64.7436L34.5459 64.8494C37.5607 65.8016 40.8702 66.3207 44.0916 66.2857C46.4717 66.2481 48.668 65.6261 50.6126 64.1352L50.7561 64.1806C51.5446 62.8508 52.6453 61.1986 53.9879 59.7807C56.8417 57.577 59.6829 55.5799 62.5972 53.1849C66.7407 49.2309 70.2823 44.3499 73.1313 38.8292C71.6729 39.9474 68.7613 40.5013 63.9935 40.1005ZM25.7335 23.4367C30.4936 26.3612 36.8858 29.1171 44.8295 31.6263C52.9168 34.1808 59.6037 35.5036 65.165 35.8918C71.0284 36.323 74.2045 35.4316 74.7033 33.8524C75.0812 32.6561 74.2325 31.1775 72.3512 29.636C72.7239 30.1221 72.9405 30.7694 72.7591 31.3437C72.23 33.0185 69.3184 33.5724 63.994 33.1011C59.0826 32.6549 52.922 31.4984 45.7439 29.2311C38.8051 27.0393 32.8587 24.3716 28.7107 22.0088C24.3032 19.3009 22.175 17.2078 22.689 15.5807C22.9157 14.8629 23.4321 14.3945 24.6008 14.0269C21.2081 14.2709 19.3266 14.7292 18.858 16.2127C18.4725 17.9329 20.6233 20.4542 25.7335 23.4367Z" fill="#F8BFC0" fill-opacity="0.4"/>
</svg>
