<svg width="30" height="30" viewBox="0 0 30 30" fill="none" xmlns="http://www.w3.org/2000/svg">
<path fill-rule="evenodd" clip-rule="evenodd" d="M10.9375 2.51625V27.5H18.75C22.285 27.5 24.0538 27.5 25.1513 26.4013C26.25 25.3038 26.25 23.535 26.25 20V10C26.25 6.465 26.25 4.69625 25.1513 3.59875C24.0538 2.5 22.285 2.5 18.75 2.5H11.25L10.9375 2.51625ZM13.4375 8.125C13.4375 7.87636 13.5363 7.6379 13.7121 7.46209C13.8879 7.28627 14.1264 7.1875 14.375 7.1875H20.625C20.8736 7.1875 21.1121 7.28627 21.2879 7.46209C21.4637 7.6379 21.5625 7.87636 21.5625 8.125C21.5625 8.37364 21.4637 8.6121 21.2879 8.78791C21.1121 8.96373 20.8736 9.0625 20.625 9.0625H14.375C14.1264 9.0625 13.8879 8.96373 13.7121 8.78791C13.5363 8.6121 13.4375 8.37364 13.4375 8.125ZM13.4375 12.5C13.4375 12.2514 13.5363 12.0129 13.7121 11.8371C13.8879 11.6613 14.1264 11.5625 14.375 11.5625H20.625C20.8736 11.5625 21.1121 11.6613 21.2879 11.8371C21.4637 12.0129 21.5625 12.2514 21.5625 12.5C21.5625 12.7486 21.4637 12.9871 21.2879 13.1629C21.1121 13.3387 20.8736 13.4375 20.625 13.4375H14.375C14.1264 13.4375 13.8879 13.3387 13.7121 13.1629C13.5363 12.9871 13.4375 12.7486 13.4375 12.5ZM3.75 9.0625C3.76 6.1425 3.85125 4.595 4.84875 3.59875C5.6925 2.755 6.93125 2.55875 9.0625 2.51375V27.4862C6.93125 27.4412 5.6925 27.245 4.84875 26.4013C3.85125 25.405 3.76 23.8575 3.75125 20.9375H5C5.24864 20.9375 5.4871 20.8387 5.66291 20.6629C5.83873 20.4871 5.9375 20.2486 5.9375 20C5.9375 19.7514 5.83873 19.5129 5.66291 19.3371C5.4871 19.1613 5.24864 19.0625 5 19.0625H3.75V15.9375H5C5.24864 15.9375 5.4871 15.8387 5.66291 15.6629C5.83873 15.4871 5.9375 15.2486 5.9375 15C5.9375 14.7514 5.83873 14.5129 5.66291 14.3371C5.4871 14.1613 5.24864 14.0625 5 14.0625H3.75V10.9375H5C5.24864 10.9375 5.4871 10.8387 5.66291 10.6629C5.83873 10.4871 5.9375 10.2486 5.9375 10C5.9375 9.75136 5.83873 9.5129 5.66291 9.33709C5.4871 9.16127 5.24864 9.0625 5 9.0625H3.75ZM3.75 9.0625H2.5C2.25136 9.0625 2.0129 9.16127 1.83709 9.33709C1.66127 9.5129 1.5625 9.75136 1.5625 10C1.5625 10.2486 1.66127 10.4871 1.83709 10.6629C2.0129 10.8387 2.25136 10.9375 2.5 10.9375H3.75V9.0625ZM3.75 15.9375H2.5C2.25136 15.9375 2.0129 15.8387 1.83709 15.6629C1.66127 15.4871 1.5625 15.2486 1.5625 15C1.5625 14.7514 1.66127 14.5129 1.83709 14.3371C2.0129 14.1613 2.25136 14.0625 2.5 14.0625H3.75V15.9375ZM3.75 19.0625H2.5C2.25136 19.0625 2.0129 19.1613 1.83709 19.3371C1.66127 19.5129 1.5625 19.7514 1.5625 20C1.5625 20.2486 1.66127 20.4871 1.83709 20.6629C2.0129 20.8387 2.25136 20.9375 2.5 20.9375H3.75125L3.75 19.0625Z" fill="#F47E8A"/>
</svg>
