<svg width="28" height="28" viewBox="0 0 28 28" fill="none" xmlns="http://www.w3.org/2000/svg">
<path d="M23.947 24.0743C25.732 22.2916 26.3702 20.0376 23.947 17.6156C21.5239 15.1936 17.4849 14.3863 15.869 16.0009C14.2544 17.6156 15.0617 21.6534 17.4849 24.0743C19.908 26.4974 22.1632 25.8593 23.947 24.0743ZM15.869 16.0009L23.947 24.0743" stroke="#F47E8A" stroke-width="1.5"/>
<path d="M13.9323 25.6655H9.33559M9.33325 9.37886L5.81575 5.76919L2.98892 8.69986C2.56835 9.13495 2.33326 9.7164 2.33325 10.3215V23.3322C2.33325 23.951 2.57908 24.5445 3.01667 24.9821C3.45425 25.4197 4.04775 25.6655 4.66659 25.6655H9.33325V9.37886ZM9.33325 9.37886H21.0291M5.81692 5.77036V4.08569C5.81692 3.62156 6.00129 3.17644 6.32948 2.84826C6.65767 2.52007 7.10279 2.33569 7.56692 2.33569H16.3788C16.6114 2.3358 16.8418 2.38231 17.0563 2.47251C17.2708 2.56271 17.4651 2.69477 17.628 2.86098C17.7908 3.0272 17.9189 3.22422 18.0047 3.44051C18.0905 3.65681 18.1322 3.88805 18.1276 4.12069L18.1043 5.32586C18.0983 5.60129 18.1901 5.86992 18.3633 6.08419L21.0291 9.37886V12.2302" stroke="#F47E8A" stroke-width="1.5" stroke-linecap="round" stroke-linejoin="round"/>
</svg>
