<svg width="33" height="33" viewBox="0 0 33 33" fill="none" xmlns="http://www.w3.org/2000/svg">
<path d="M10.75 3V5.75H22.25V3H24.5V5.75H26.125C26.788 5.75 27.4237 6.01358 27.8926 6.48242C28.3614 6.95126 28.625 7.58696 28.625 8.25V27.5C28.625 28.163 28.3614 28.7987 27.8926 29.2676C27.4237 29.7364 26.788 30 26.125 30H6.875C6.21196 30 5.57626 29.7364 5.10742 29.2676C4.63858 28.7987 4.375 28.163 4.375 27.5V8.25C4.375 7.58696 4.63858 6.95126 5.10742 6.48242C5.57626 6.01358 6.21196 5.75 6.875 5.75H8.5V3H10.75ZM6.625 27.75H26.375V10.75H6.625V27.75ZM23.125 20.875V23.125H20.875V20.875H23.125ZM17.625 20.875V23.125H15.375V20.875H17.625ZM12.125 20.875V23.125H9.875V20.875H12.125ZM23.125 15.375V17.625H20.875V15.375H23.125ZM17.625 15.375V17.625H15.375V15.375H17.625ZM12.125 15.375V17.625H9.875V15.375H12.125Z" fill="#F47E8A" stroke="#FFF5F3" stroke-width="0.5"/>
</svg>
