<svg width="29" height="29" viewBox="0 0 29 29" fill="none" xmlns="http://www.w3.org/2000/svg">
<path d="M3.625 16.9167C4.62792 17.6924 6.13471 18.1455 7.85417 18.125C9.57363 18.1455 11.0804 17.6924 12.0833 16.9167C13.0863 16.1409 14.593 15.6878 16.3125 15.7083C18.032 15.6878 19.5388 16.1409 20.5417 16.9167M9.66667 3.625C9.28424 3.8995 8.97438 4.26297 8.76386 4.68401C8.55334 5.10506 8.44847 5.57103 8.45833 6.04167C8.44847 6.51231 8.55334 6.97827 8.76386 7.39932C8.97438 7.82037 9.28424 8.18384 9.66667 8.45833M14.5 3.625C14.1176 3.8995 13.8077 4.26297 13.5972 4.68401C13.3867 5.10506 13.2818 5.57103 13.2917 6.04167C13.2818 6.51231 13.3867 6.97827 13.5972 7.39932C13.8077 7.82037 14.1176 8.18384 14.5 8.45833" stroke="#F47E8A" stroke-width="1.5" stroke-linecap="round" stroke-linejoin="round"/>
<path d="M3.625 12.0834H20.5417V18.125C20.5417 20.0479 19.7778 21.8919 18.4182 23.2516C17.0586 24.6112 15.2145 25.375 13.2917 25.375H10.875C8.95218 25.375 7.10811 24.6112 5.74848 23.2516C4.38884 21.8919 3.625 20.0479 3.625 18.125V12.0834Z" stroke="#F47E8A" stroke-width="1.5" stroke-linecap="round" stroke-linejoin="round"/>
<path d="M20.2347 20.2106C20.7744 20.4583 21.3666 20.5697 21.9594 20.5349C22.5521 20.5001 23.1273 20.3203 23.6343 20.0112C24.1412 19.7021 24.5645 19.2731 24.8669 18.7621C25.1693 18.2511 25.3415 17.6736 25.3684 17.0804C25.3953 16.4872 25.2761 15.8965 25.0212 15.3602C24.7664 14.8239 24.3837 14.3584 23.9067 14.0047C23.4298 13.6509 22.8733 13.4197 22.2862 13.3314C21.699 13.2431 21.0991 13.3004 20.5392 13.4983" stroke="#F47E8A" stroke-width="1.5" stroke-linecap="round" stroke-linejoin="round"/>
</svg>
