<svg width="19" height="19" viewBox="0 0 19 19" fill="none" xmlns="http://www.w3.org/2000/svg">
<path d="M4.75 9.5L5.57709 8.65094L8.90625 11.9641V4.75H10.0938V11.9641L13.4027 8.65094L14.25 9.5L9.5 14.25L4.75 9.5Z" fill="#F47E8A"/>
<path d="M17.8125 9.5C17.8125 11.1441 17.325 12.7512 16.4116 14.1182C15.4982 15.4852 14.2 16.5506 12.6811 17.1797C11.1621 17.8089 9.49078 17.9735 7.87832 17.6528C6.26585 17.332 4.7847 16.5403 3.62218 15.3778C2.45965 14.2153 1.66797 12.7342 1.34723 11.1217C1.02649 9.50922 1.1911 7.83785 1.82026 6.31894C2.44941 4.80003 3.51484 3.50179 4.88183 2.5884C6.24881 1.67502 7.85595 1.1875 9.5 1.1875C11.7038 1.19001 13.8167 2.0666 15.3751 3.62495C16.9334 5.1833 17.81 7.29616 17.8125 9.5ZM2.375 9.5C2.375 10.9092 2.79288 12.2867 3.57578 13.4584C4.35869 14.6301 5.47146 15.5434 6.77338 16.0826C8.07531 16.6219 9.50791 16.763 10.89 16.4881C12.2721 16.2132 13.5417 15.5346 14.5381 14.5381C15.5346 13.5417 16.2132 12.2721 16.4881 10.89C16.763 9.5079 16.6219 8.0753 16.0826 6.77338C15.5434 5.47145 14.6301 4.35868 13.4584 3.57578C12.2867 2.79287 10.9092 2.375 9.5 2.375C7.61101 2.3772 5.80002 3.12857 4.4643 4.46429C3.12858 5.80001 2.3772 7.611 2.375 9.5Z" fill="#F47E8A"/>
</svg>
