<svg width="24" height="24" viewBox="0 0 24 24" fill="none" xmlns="http://www.w3.org/2000/svg">
<path d="M6.28835 11.2924L16.854 3.04003C16.8816 3.01829 16.9148 3.00478 16.9497 3.00105C16.9846 2.99733 17.0199 3.00353 17.0515 3.01895C17.0831 3.03437 17.1097 3.05838 17.1282 3.08823C17.1467 3.11807 17.1565 3.15255 17.1563 3.18768V4.9994C17.1563 5.11425 17.1024 5.2244 17.0133 5.29471L8.57585 11.883L17.0133 18.4713C17.1048 18.5416 17.1563 18.6517 17.1563 18.7666V20.5783C17.1563 20.7353 16.9758 20.8221 16.854 20.726L6.28835 12.4736C6.19855 12.4036 6.1259 12.314 6.07594 12.2116C6.02597 12.1093 6 11.9969 6 11.883C6 11.7691 6.02597 11.6567 6.07594 11.5544C6.1259 11.452 6.19855 11.3624 6.28835 11.2924Z" fill="#6A3A25"/>
</svg>
