<svg width="29" height="29" viewBox="0 0 29 29" fill="none" xmlns="http://www.w3.org/2000/svg">
<path d="M14.5 15.7084V15.7205M12.0833 19.3334V19.3455M16.9167 19.3334V19.3455M9.0625 9.66671H19.9375L19.598 6.95037C19.5249 6.36579 19.2408 5.82802 18.7991 5.43817C18.3574 5.04832 17.7885 4.83325 17.1994 4.83337H11.8006C11.2112 4.83295 10.6421 5.0479 10.2001 5.43777C9.75816 5.82765 9.47391 6.36558 9.40083 6.95037L9.0625 9.66671Z" stroke="#F47E8A" stroke-width="1.2" stroke-linecap="round" stroke-linejoin="round"/>
<path d="M9.06254 9.66675L7.11471 21.3525C7.05697 21.6988 7.07534 22.0534 7.16856 22.3919C7.26178 22.7303 7.42761 23.0443 7.6545 23.3122C7.8814 23.58 8.16392 23.7952 8.48241 23.9428C8.80091 24.0904 9.14773 24.1668 9.49875 24.1667H19.5013C19.8524 24.1668 20.1992 24.0904 20.5177 23.9428C20.8362 23.7952 21.1187 23.58 21.3456 23.3122C21.5725 23.0443 21.7383 22.7303 21.8315 22.3919C21.9247 22.0534 21.9431 21.6988 21.8854 21.3525L19.9375 9.66675" stroke="#F47E8A" stroke-width="1.2" stroke-linecap="round" stroke-linejoin="round"/>
</svg>
