<svg width="28" height="28" viewBox="0 0 28 28" fill="none" xmlns="http://www.w3.org/2000/svg">
<path d="M14 2.58337C14.1979 2.58337 14.3766 2.64007 14.5146 2.74353L14.5283 2.7533L14.543 2.76111L23.7588 7.94177L23.7646 7.94373C24.0589 8.10008 24.25 8.40248 24.25 8.75037V19.2504C24.2499 19.5981 24.0588 19.8997 23.7646 20.056L23.7588 20.059L14.543 25.2386L14.5283 25.2465L14.5146 25.2562C14.3766 25.3598 14.198 25.4164 14 25.4164C13.802 25.4164 13.6234 25.3598 13.4854 25.2562L13.4717 25.2465L13.457 25.2386L4.24121 20.059L4.23438 20.0551C4.08792 19.9782 3.96526 19.8627 3.87988 19.7211C3.79453 19.5794 3.74952 19.4168 3.75 19.2513V8.75037C3.75 8.40278 3.94051 8.1002 4.23438 7.94373L4.23535 7.9447L4.24121 7.94177L13.457 2.76111L13.4717 2.7533L13.4854 2.74353C13.6234 2.64007 13.8021 2.58338 14 2.58337ZM22.0439 10.5267L15.0439 14.4584L14.917 14.5306V22.933L15.2891 22.723L22.2891 18.7797L22.417 18.7074V10.3177L22.0439 10.5267ZM13.8779 4.62341L6.92383 8.53259L6.53613 8.75037L6.92383 8.96814L13.8779 12.8763L14 12.9447L14.1221 12.8763L21.0762 8.96814L21.4639 8.75037L21.0762 8.53259L14.1221 4.62341L14 4.55505L13.8779 4.62341ZM13.083 14.5306L12.9561 14.4584L5.95605 10.5267L5.58301 10.3177V18.7074L5.71094 18.7797L12.7109 22.723L13.083 22.933V14.5306Z" fill="#F47E8A" stroke="white" stroke-width="0.5"/>
</svg>
