<svg width="29" height="29" viewBox="0 0 29 29" fill="none" xmlns="http://www.w3.org/2000/svg">
<path d="M27.1553 13.9281L15.0719 1.84472C14.921 1.69469 14.7168 1.61047 14.504 1.61047C14.2912 1.61047 14.087 1.69469 13.9361 1.84472L1.85276 13.9281C1.72079 14.0822 1.65183 14.2804 1.65966 14.4831C1.66749 14.6859 1.75153 14.8782 1.895 15.0217C2.03846 15.1651 2.23078 15.2492 2.43352 15.257C2.63626 15.2648 2.83449 15.1959 2.98859 15.0639L14.5 3.5525L26.0114 15.0719C26.1655 15.2039 26.3637 15.2729 26.5664 15.265C26.7692 15.2572 26.9615 15.1732 27.105 15.0297C27.2484 14.8862 27.3325 14.6939 27.3403 14.4912C27.3481 14.2884 27.2792 14.0902 27.1472 13.9361L27.1553 13.9281Z" fill="#848484"/>
<path d="M22.5556 25.7778H18.5278V17.7222H10.4723V25.7778H6.44449V14.5L4.83337 16.1111V25.7778C4.83337 26.205 5.00312 26.6148 5.30526 26.917C5.6074 27.2191 6.01719 27.3889 6.44449 27.3889H12.0834V19.3333H16.9167V27.3889H22.5556C22.9829 27.3889 23.3927 27.2191 23.6948 26.917C23.997 26.6148 24.1667 26.205 24.1667 25.7778V15.9178L22.5556 14.3066V25.7778Z" fill="#848484"/>
</svg>
