<svg width="27" height="28" viewBox="0 0 27 28" fill="none" xmlns="http://www.w3.org/2000/svg">
<path d="M13.5 14H16.875C18.6652 14 20.3821 13.2625 21.648 11.9497C22.9138 10.637 23.625 8.85652 23.625 7V5.83333H20.25C18.4598 5.83333 16.7429 6.57083 15.477 7.88359C14.2112 9.19634 13.5 10.9768 13.5 12.8333H10.125C8.33479 12.8333 6.6179 12.0958 5.35203 10.7831C4.08616 9.47033 3.375 7.68985 3.375 5.83333V3.5H6.75C8.54021 3.5 10.2571 4.2375 11.523 5.55025C12.7888 6.86301 13.5 8.64348 13.5 10.5V17.5M7.875 17.5H19.125V22.1667C19.125 22.7855 18.8879 23.379 18.466 23.8166C18.044 24.2542 17.4717 24.5 16.875 24.5H10.125C9.52826 24.5 8.95597 24.2542 8.53401 23.8166C8.11205 23.379 7.875 22.7855 7.875 22.1667V17.5Z" stroke="#848484" stroke-width="1.5" stroke-linecap="round" stroke-linejoin="round"/>
</svg>
