<svg width="19" height="19" viewBox="0 0 19 19" fill="none" xmlns="http://www.w3.org/2000/svg">
<path d="M14.25 9.5L13.4229 10.3491L10.0938 7.03594V14.25H8.90625V7.03594L5.59728 10.3491L4.75 9.5L9.5 4.75L14.25 9.5Z" fill="#F47E8A"/>
<path d="M1.1875 9.5C1.1875 7.85595 1.67502 6.24881 2.5884 4.88183C3.50179 3.51484 4.80003 2.44941 6.31894 1.82026C7.83785 1.1911 9.50922 1.02649 11.1217 1.34723C12.7342 1.66797 14.2153 2.45965 15.3778 3.62218C16.5403 4.7847 17.332 6.26585 17.6528 7.87832C17.9735 9.49078 17.8089 11.1621 17.1797 12.6811C16.5506 14.2 15.4852 15.4982 14.1182 16.4116C12.7512 17.325 11.1441 17.8125 9.5 17.8125C7.29616 17.81 5.1833 16.9334 3.62495 15.3751C2.0666 13.8167 1.19001 11.7038 1.1875 9.5ZM16.625 9.5C16.625 8.09081 16.2071 6.71327 15.4242 5.54157C14.6413 4.36987 13.5285 3.45664 12.2266 2.91736C10.9247 2.37809 9.49209 2.23699 8.10998 2.51191C6.72786 2.78683 5.45831 3.46542 4.46186 4.46187C3.46541 5.45832 2.78682 6.72787 2.5119 8.10999C2.23698 9.4921 2.37808 10.9247 2.91736 12.2266C3.45663 13.5285 4.36986 14.6413 5.54156 15.4242C6.71326 16.2071 8.0908 16.625 9.5 16.625C11.389 16.6228 13.2 15.8714 14.5357 14.5357C15.8714 13.2 16.6228 11.389 16.625 9.5Z" fill="#F47E8A"/>
</svg>
