<svg width="31" height="32" viewBox="0 0 31 32" fill="none" xmlns="http://www.w3.org/2000/svg">
<path d="M3.875 9.33333V6.66667C3.875 5.95942 4.14717 5.28115 4.63164 4.78105C5.11611 4.28095 5.77319 4 6.45833 4H9.04167M21.9583 4H24.5417C25.2268 4 25.8839 4.28095 26.3684 4.78105C26.8528 5.28115 27.125 5.95942 27.125 6.66667V9.33333M27.125 22.6667V25.3333C27.125 26.0406 26.8528 26.7189 26.3684 27.219C25.8839 27.719 25.2268 28 24.5417 28H21.9583M9.04167 28H6.45833C5.77319 28 5.11611 27.719 4.63164 27.219C4.14717 26.7189 3.875 26.0406 3.875 25.3333V22.6667M10.3333 9.33333V22.6667M15.5 9.33333V22.6667M21.9583 9.33333V22.6667" stroke="#F47E8A" stroke-width="2.5" stroke-linecap="round" stroke-linejoin="round"/>
</svg>
