<svg width="27" height="27" viewBox="0 0 27 27" fill="none" xmlns="http://www.w3.org/2000/svg">
<path d="M24.4688 5.0625V9.28125C24.4688 9.50503 24.3799 9.71964 24.2216 9.87787C24.0634 10.0361 23.8488 10.125 23.625 10.125C23.4012 10.125 23.1866 10.0361 23.0284 9.87787C22.8701 9.71964 22.7812 9.50503 22.7812 9.28125V5.90625H19.4062C19.1825 5.90625 18.9679 5.81735 18.8096 5.65912C18.6514 5.50089 18.5625 5.28628 18.5625 5.0625C18.5625 4.83872 18.6514 4.62411 18.8096 4.46588C18.9679 4.30764 19.1825 4.21875 19.4062 4.21875H23.625C23.8488 4.21875 24.0634 4.30764 24.2216 4.46588C24.3799 4.62411 24.4688 4.83872 24.4688 5.0625ZM7.59375 21.0938H4.21875V17.7188C4.21875 17.495 4.12985 17.2804 3.97162 17.1221C3.81339 16.9639 3.59878 16.875 3.375 16.875C3.15122 16.875 2.93661 16.9639 2.77838 17.1221C2.62014 17.2804 2.53125 17.495 2.53125 17.7188V21.9375C2.53125 22.1613 2.62014 22.3759 2.77838 22.5341C2.93661 22.6924 3.15122 22.7812 3.375 22.7812H7.59375C7.81753 22.7812 8.03214 22.6924 8.19037 22.5341C8.3486 22.3759 8.4375 22.1613 8.4375 21.9375C8.4375 21.7137 8.3486 21.4991 8.19037 21.3409C8.03214 21.1826 7.81753 21.0938 7.59375 21.0938ZM23.625 16.875C23.4012 16.875 23.1866 16.9639 23.0284 17.1221C22.8701 17.2804 22.7812 17.495 22.7812 17.7188V21.0938H19.4062C19.1825 21.0938 18.9679 21.1826 18.8096 21.3409C18.6514 21.4991 18.5625 21.7137 18.5625 21.9375C18.5625 22.1613 18.6514 22.3759 18.8096 22.5341C18.9679 22.6924 19.1825 22.7812 19.4062 22.7812H23.625C23.8488 22.7812 24.0634 22.6924 24.2216 22.5341C24.3799 22.3759 24.4688 22.1613 24.4688 21.9375V17.7188C24.4688 17.495 24.3799 17.2804 24.2216 17.1221C24.0634 16.9639 23.8488 16.875 23.625 16.875ZM3.375 10.125C3.59878 10.125 3.81339 10.0361 3.97162 9.87787C4.12985 9.71964 4.21875 9.50503 4.21875 9.28125V5.90625H7.59375C7.81753 5.90625 8.03214 5.81735 8.19037 5.65912C8.3486 5.50089 8.4375 5.28628 8.4375 5.0625C8.4375 4.83872 8.3486 4.62411 8.19037 4.46588C8.03214 4.30764 7.81753 4.21875 7.59375 4.21875H3.375C3.15122 4.21875 2.93661 4.30764 2.77838 4.46588C2.62014 4.62411 2.53125 4.83872 2.53125 5.0625V9.28125C2.53125 9.50503 2.62014 9.71964 2.77838 9.87787C2.93661 10.0361 3.15122 10.125 3.375 10.125ZM8.4375 8.4375C8.21372 8.4375 7.99911 8.5264 7.84088 8.68463C7.68265 8.84286 7.59375 9.05747 7.59375 9.28125V17.7188C7.59375 17.9425 7.68265 18.1571 7.84088 18.3154C7.99911 18.4736 8.21372 18.5625 8.4375 18.5625C8.66128 18.5625 8.87589 18.4736 9.03412 18.3154C9.19235 18.1571 9.28125 17.9425 9.28125 17.7188V9.28125C9.28125 9.05747 9.19235 8.84286 9.03412 8.68463C8.87589 8.5264 8.66128 8.4375 8.4375 8.4375ZM19.4062 17.7188V9.28125C19.4062 9.05747 19.3174 8.84286 19.1591 8.68463C19.0009 8.5264 18.7863 8.4375 18.5625 8.4375C18.3387 8.4375 18.1241 8.5264 17.9659 8.68463C17.8076 8.84286 17.7188 9.05747 17.7188 9.28125V17.7188C17.7188 17.9425 17.8076 18.1571 17.9659 18.3154C18.1241 18.4736 18.3387 18.5625 18.5625 18.5625C18.7863 18.5625 19.0009 18.4736 19.1591 18.3154C19.3174 18.1571 19.4062 17.9425 19.4062 17.7188ZM15.1875 8.4375C14.9637 8.4375 14.7491 8.5264 14.5909 8.68463C14.4326 8.84286 14.3438 9.05747 14.3438 9.28125V17.7188C14.3438 17.9425 14.4326 18.1571 14.5909 18.3154C14.7491 18.4736 14.9637 18.5625 15.1875 18.5625C15.4113 18.5625 15.6259 18.4736 15.7841 18.3154C15.9424 18.1571 16.0312 17.9425 16.0312 17.7188V9.28125C16.0312 9.05747 15.9424 8.84286 15.7841 8.68463C15.6259 8.5264 15.4113 8.4375 15.1875 8.4375ZM11.8125 8.4375C11.5887 8.4375 11.3741 8.5264 11.2159 8.68463C11.0576 8.84286 10.9688 9.05747 10.9688 9.28125V17.7188C10.9688 17.9425 11.0576 18.1571 11.2159 18.3154C11.3741 18.4736 11.5887 18.5625 11.8125 18.5625C12.0363 18.5625 12.2509 18.4736 12.4091 18.3154C12.5674 18.1571 12.6562 17.9425 12.6562 17.7188V9.28125C12.6562 9.05747 12.5674 8.84286 12.4091 8.68463C12.2509 8.5264 12.0363 8.4375 11.8125 8.4375Z" fill="#F47E8A"/>
</svg>
