<svg width="36" height="36" viewBox="0 0 36 36" fill="none" xmlns="http://www.w3.org/2000/svg">
<path d="M15.7229 5.08472C18.554 5.09989 21.2649 6.23125 23.2668 8.23315C25.2688 10.2351 26.4001 12.946 26.4153 15.7771C26.4304 18.6083 25.3274 21.3311 23.3469 23.3542C22.3527 24.3699 21.1673 25.1788 19.8586 25.7332C18.55 26.2875 17.1441 26.5771 15.7229 26.5847C14.3017 26.5923 12.8929 26.3174 11.5784 25.7771C10.2638 25.2367 9.06876 24.4413 8.06372 23.4363C7.05868 22.4312 6.26333 21.2362 5.7229 19.9216C5.18256 18.6071 4.90771 17.1983 4.91528 15.7771C4.9229 14.3559 5.21249 12.95 5.76685 11.6414C6.32124 10.3327 7.13013 9.14728 8.14575 8.15308C10.1689 6.17258 12.8917 5.06964 15.7229 5.08472Z" stroke="#F47E8A"/>
<path d="M23.7045 23.706L31.659 31.6605M23.7045 23.706C22.664 24.7689 21.423 25.6135 20.0534 26.1936C18.6837 26.7738 17.2126 27.0766 15.7252 27.0846C14.2378 27.0925 12.7635 26.8054 11.3878 26.2398C10.012 25.6742 8.76212 24.8415 7.71033 23.7897C6.65854 22.7379 5.82577 21.488 5.26021 20.1122C4.69465 18.7365 4.40752 17.2622 4.41544 15.7748C4.42336 14.2874 4.72618 12.8163 5.30636 11.4466C5.88655 10.077 6.73258 8.83601 7.79552 7.79548C9.91282 5.72281 12.7623 4.5691 15.7252 4.58488C18.6881 4.60066 21.5251 5.78466 23.6202 7.87977C25.7153 9.97487 26.8993 12.8119 26.9151 15.7748C26.9309 18.7377 25.7772 21.5887 23.7045 23.706Z" stroke="#F47E8A" stroke-width="2.5" stroke-linecap="square"/>
</svg>
