<svg width="26" height="26" viewBox="0 0 26 26" fill="none" xmlns="http://www.w3.org/2000/svg">
<path d="M12.3271 2.61218C12.7609 2.44959 13.2391 2.44959 13.6729 2.61218L21.2559 5.45593C21.6213 5.5929 21.9359 5.83833 22.1582 6.15906C22.3805 6.47981 22.5 6.86061 22.5 7.25085V13.0604C22.5 14.8247 22.0086 16.5547 21.0811 18.0555C20.1536 19.556 18.8267 20.7685 17.249 21.5575L13.6152 23.3749C13.4243 23.4704 13.2135 23.5204 13 23.5204C12.7865 23.5204 12.5757 23.4704 12.3848 23.3749L8.75098 21.5575C7.17329 20.7685 5.84635 19.556 4.91895 18.0555C3.99143 16.5547 3.49996 14.8247 3.5 13.0604V7.25085C3.49995 6.86061 3.61951 6.47981 3.8418 6.15906C4.06408 5.83833 4.37874 5.5929 4.74414 5.45593L12.3271 2.61218ZM13 8.91687C13.221 8.91687 13.4326 9.00478 13.5889 9.16101C13.7451 9.31725 13.833 9.52893 13.833 9.74988V12.1669H16.25C16.471 12.1669 16.6826 12.2548 16.8389 12.411C16.9951 12.5673 17.083 12.7789 17.083 12.9999C17.083 13.2209 16.9951 13.4334 16.8389 13.5897C16.6826 13.7458 16.4708 13.8339 16.25 13.8339H13.833V16.2499C13.833 16.4709 13.7451 16.6834 13.5889 16.8397C13.4326 16.9958 13.2208 17.0839 13 17.0839C12.7792 17.0839 12.5674 16.9958 12.4111 16.8397C12.2549 16.6834 12.167 16.4709 12.167 16.2499V13.8339H9.75C9.52918 13.8339 9.31737 13.7458 9.16113 13.5897C9.00485 13.4334 8.91699 13.2209 8.91699 12.9999C8.91704 12.7789 9.00489 12.5673 9.16113 12.411C9.3174 12.2548 9.52903 12.1669 9.75 12.1669H12.167V9.74988C12.167 9.52893 12.2549 9.31725 12.4111 9.16101C12.5674 9.00478 12.779 8.91687 13 8.91687ZM20.833 7.078L20.6709 7.01648L13.0879 4.17273L13 4.1405L12.9121 4.17273L5.3291 7.01648L5.16699 7.078V13.0604C5.16725 14.515 5.57202 15.9413 6.33691 17.1786C7.10178 18.4158 8.19604 19.4159 9.49707 20.0663L12.8877 21.7635L13 21.8192L13.1113 21.7635L16.5029 20.0682C17.8042 19.4177 18.8982 18.4172 19.6631 17.1796C20.428 15.9419 20.8332 14.5154 20.833 13.0604V7.078Z" fill="#F47E8A" stroke="white" stroke-width="0.5"/>
</svg>
