<svg width="25" height="25" viewBox="0 0 25 25" fill="none" xmlns="http://www.w3.org/2000/svg">
<path d="M10.4167 16.6667C10.9376 16.9792 11.6667 17.1875 12.5001 17.1875C13.3334 17.1875 14.0626 16.9792 14.5834 16.6667M15.6251 12.5H15.6355" stroke="#F47E8A" stroke-width="2" stroke-linecap="round" stroke-linejoin="round"/>
<path d="M20.1876 7.09688C20.9179 8.15875 21.4215 9.35979 21.6668 10.625C22.019 10.7956 22.3161 11.062 22.5239 11.3936C22.7318 11.7252 22.842 12.1086 22.842 12.5C22.842 12.8914 22.7318 13.2748 22.5239 13.6064C22.3161 13.938 22.019 14.2044 21.6668 14.375C21.2171 16.4724 20.0617 18.3521 18.3935 19.7006C16.7253 21.049 14.6451 21.7846 12.5001 21.7846C10.3551 21.7846 8.27488 21.049 6.60668 19.7006C4.93847 18.3521 3.78313 16.4724 3.33343 14.375C2.9812 14.2044 2.68415 13.938 2.47629 13.6064C2.26844 13.2748 2.1582 12.8914 2.1582 12.5C2.1582 12.1086 2.26844 11.7252 2.47629 11.3936C2.68415 11.062 2.9812 10.7956 3.33343 10.625C3.76496 8.51094 4.91249 6.61044 6.58242 5.24413C8.25235 3.87783 10.3425 3.12936 12.5001 3.125C14.5834 3.125 16.1459 4.27083 16.1459 5.72917C16.1459 7.1875 15.2084 8.33333 14.0626 8.33333C13.2293 8.33333 12.5001 7.91667 12.5001 7.29167M9.3751 12.5H9.38552" stroke="#F47E8A" stroke-width="2" stroke-linecap="round" stroke-linejoin="round"/>
</svg>
