<svg width="32" height="32" viewBox="0 0 32 32" fill="none" xmlns="http://www.w3.org/2000/svg">
<path d="M12 26.6667H20V29.3333H12V26.6667ZM10.8934 20.0667C11.44 20.8933 11.72 21.88 11.8534 22.6667H10.6667V25.3333H21.3334V22.6667H20.1467C20.2934 21.88 20.56 20.8933 21.1067 20.0667C21.5867 19.3467 22.12 18.72 22.6267 18.12C23.96 16.5467 25.3334 14.9333 25.3334 11.9867C25.3334 6.83999 21.1467 2.65332 16 2.65332C10.8534 2.65332 6.66669 6.83999 6.66669 11.9867C6.66669 14.9333 8.04002 16.5467 9.36002 18.0933C9.88002 18.6933 10.4 19.32 10.8934 20.0533V20.0667ZM16 5.33332C19.68 5.33332 22.6667 8.31999 22.6667 12C22.6667 13.96 21.84 14.9333 20.6 16.4C20.0667 17.0267 19.4667 17.7333 18.8934 18.5867C17.9867 19.96 17.6 21.56 17.44 22.6667H14.5467C14.3867 21.56 14.0134 19.96 13.1067 18.6C12.5334 17.7333 11.92 17.0133 11.3867 16.3867C10.1467 14.9333 9.33335 13.9733 9.33335 12C9.33335 8.31999 12.32 5.33332 16 5.33332Z" fill="#F8BFC0"/>
</svg>
