<svg width="28" height="28" viewBox="0 0 28 28" fill="none" xmlns="http://www.w3.org/2000/svg">
<path fill-rule="evenodd" clip-rule="evenodd" d="M14 4.599C15.3664 3.33295 17.1597 2.62815 19.0225 2.625C21.0362 2.625 22.9588 3.45333 24.3658 4.91167C25.7659 6.37117 26.5458 8.31653 26.5417 10.339C26.5458 12.3615 25.7659 14.3068 24.3658 15.7663C23.4372 16.7288 22.5097 17.7147 21.5775 18.704C19.6828 20.7153 17.7683 22.7488 15.7792 24.6633L15.7757 24.668C15.2818 25.1357 14.6232 25.3896 13.9432 25.3745C13.2631 25.3595 12.6165 25.0766 12.1438 24.5875L3.63299 15.7663C0.733827 12.7598 0.733827 7.91817 3.63299 4.91283C4.97303 3.50864 6.81202 2.68847 8.75213 2.62974C10.6922 2.571 12.5775 3.27844 14 4.599Z" fill="#F3AE96"/>
</svg>
