<svg width="19" height="19" viewBox="0 0 19 19" fill="none" xmlns="http://www.w3.org/2000/svg">
<path d="M9.49992 1.58337C13.8723 1.58337 17.4166 5.12767 17.4166 9.50004C17.4166 13.8724 13.8723 17.4167 9.49992 17.4167C5.12754 17.4167 1.58325 13.8724 1.58325 9.50004C1.58325 5.12767 5.12754 1.58337 9.49992 1.58337ZM9.49992 3.16671C7.82021 3.16671 6.20931 3.83397 5.02158 5.0217C3.83385 6.20943 3.16659 7.82034 3.16659 9.50004C3.16659 11.1797 3.83385 12.7907 5.02158 13.9784C6.20931 15.1661 7.82021 15.8334 9.49992 15.8334C11.1796 15.8334 12.7905 15.1661 13.9783 13.9784C15.166 12.7907 15.8333 11.1797 15.8333 9.50004C15.8333 7.82034 15.166 6.20943 13.9783 5.0217C12.7905 3.83397 11.1796 3.16671 9.49992 3.16671ZM9.492 7.91671C9.93375 7.91671 10.2916 8.27454 10.2916 8.71629V12.7728C10.4425 12.8599 10.5604 12.9944 10.6271 13.1554C10.6938 13.3164 10.7055 13.4949 10.6604 13.6633C10.6153 13.8316 10.5159 13.9803 10.3777 14.0864C10.2394 14.1925 10.07 14.25 9.89575 14.25H9.50783C9.40283 14.25 9.29886 14.2294 9.20185 14.1892C9.10484 14.149 9.01669 14.0901 8.94244 14.0158C8.8682 13.9416 8.8093 13.8535 8.76912 13.7564C8.72893 13.6594 8.70825 13.5555 8.70825 13.4505V9.50004C8.49829 9.50004 8.29693 9.41663 8.14846 9.26817C7.99999 9.1197 7.91658 8.91834 7.91658 8.70837C7.91658 8.49841 7.99999 8.29705 8.14846 8.14858C8.29693 8.00011 8.49829 7.91671 8.70825 7.91671H9.492ZM9.49992 5.54171C9.70988 5.54171 9.91124 5.62511 10.0597 5.77358C10.2082 5.92205 10.2916 6.12341 10.2916 6.33337C10.2916 6.54334 10.2082 6.7447 10.0597 6.89317C9.91124 7.04163 9.70988 7.12504 9.49992 7.12504C9.28996 7.12504 9.08859 7.04163 8.94013 6.89317C8.79166 6.7447 8.70825 6.54334 8.70825 6.33337C8.70825 6.12341 8.79166 5.92205 8.94013 5.77358C9.08859 5.62511 9.28996 5.54171 9.49992 5.54171Z" fill="#F47E8A"/>
</svg>
